<?xml version="1.0" encoding="UTF-8" standalone="no"?>
<!-- Created with Inkscape (http://www.inkscape.org/) -->

<svg
   xmlns:dc="http://purl.org/dc/elements/1.1/"
   xmlns:cc="http://creativecommons.org/ns#"
   xmlns:rdf="http://www.w3.org/1999/02/22-rdf-syntax-ns#"
   xmlns:svg="http://www.w3.org/2000/svg"
   xmlns="http://www.w3.org/2000/svg"
   xmlns:sodipodi="http://sodipodi.sourceforge.net/DTD/sodipodi-0.dtd"
   xmlns:inkscape="http://www.inkscape.org/namespaces/inkscape"
   width="800"
   height="171.35667"
   id="svg3021"
   version="1.1"
   inkscape:version="0.48.4 r9939"
   sodipodi:docname="title.svg">
  <defs
     id="defs3023" />
  <sodipodi:namedview
     id="base"
     pagecolor="#ffffff"
     bordercolor="#666666"
     borderopacity="1.0"
     inkscape:pageopacity="0"
     inkscape:pageshadow="2"
     inkscape:zoom="0.49497475"
     inkscape:cx="113.94661"
     inkscape:cy="393.79234"
     inkscape:document-units="px"
     inkscape:current-layer="layer1"
     showgrid="false"
     fit-margin-top="0"
     fit-margin-left="0"
     fit-margin-right="0"
     fit-margin-bottom="0"
     inkscape:window-width="1920"
     inkscape:window-height="1017"
     inkscape:window-x="1358"
     inkscape:window-y="-8"
     inkscape:window-maximized="1" />
  <metadata
     id="metadata3026">
    <rdf:RDF>
      <cc:Work
         rdf:about="">
        <dc:format>image/svg+xml</dc:format>
        <dc:type
           rdf:resource="http://purl.org/dc/dcmitype/StillImage" />
        <dc:title></dc:title>
      </cc:Work>
    </rdf:RDF>
  </metadata>
  <g
     inkscape:label="Calque 1"
     inkscape:groupmode="layer"
     id="layer1"
     transform="translate(0,-881.00553)">
    <path
       style="fill:#050505"
       d="m 166.9152,881.00787 c -0.78388,0.0354 -1.59303,0.46355 -2.84419,1.28335 -1.66412,1.09038 -11.96763,17.11264 -25.0775,38.95152 -12.2507,20.40754 -22.3025,37.41105 -22.3025,37.77222 0,0.36118 3.3713,0.64498 7.492,0.62434 l 7.492,-0.0347 17.2039,-29.3784 c 9.46215,-16.14799 17.45357,-29.34439 17.7588,-29.34371 0.61768,0.001 16.64892,27.12084 16.64892,28.16441 0,0.36276 -5.21739,0.65902 -11.61956,0.65902 l -11.65424,0 -2.77481,4.40503 c -1.53381,2.42972 -2.80945,4.65775 -2.80945,4.95999 0,0.30224 8.09042,0.69938 17.96689,0.86713 l 17.96695,0.31217 5.68838,9.43438 5.72307,9.43438 7.9776,0.31217 c 4.38421,0.17935 7.94292,0.0757 7.94292,-0.2428 0,-0.31849 -10.14812,-17.46787 -22.58009,-38.08438 -14.43905,-23.94502 -23.63774,-38.03423 -25.42428,-39.05557 -1.23768,-0.70753 -1.99094,-1.07592 -2.77481,-1.04056 z m 284.07206,0.86713 -0.38154,25.8405 c -0.42092,29.61824 -0.8869,31.38803 -9.8506,36.4195 -4.50145,2.52672 -6.13734,2.7726 -18.27912,2.77481 -11.67669,0.003 -13.95838,-0.31883 -18.52192,-2.5667 -3.90035,-1.92121 -5.77872,-3.74472 -7.49201,-7.2839 -2.10279,-4.3438 -2.28922,-6.74439 -2.28922,-29.89867 l 0,-25.18149 -7.21453,0 -7.21453,0 0,22.92695 c 0,12.61704 0.54583,26.09651 1.21398,29.93335 2.33762,13.4236 10.14413,21.1241 24.52246,24.24498 13.57095,2.94565 33.98249,1.40655 42.94032,-3.22572 5.48595,-2.8369 11.00854,-9.36103 13.11102,-15.46962 1.65812,-4.81754 1.98866,-9.75723 2.01174,-31.77167 l 0,-26.0833 -6.27802,-0.34685 -6.27803,-0.31217 z m 219.76564,0 -0.38154,25.8405 c -0.42091,29.61824 -0.88689,31.38803 -9.8506,36.4195 -4.50145,2.52672 -6.13734,2.7726 -18.27912,2.77481 -11.67669,0.003 -13.95838,-0.31883 -18.52192,-2.5667 -3.90035,-1.92121 -5.77872,-3.74472 -7.49201,-7.2839 -2.10279,-4.3438 -2.28922,-6.74439 -2.28922,-29.89867 l 0,-25.18149 -7.21453,0 -7.21453,0 0,22.92695 c 0,12.61704 0.54583,26.09651 1.21398,29.93335 2.33762,13.4236 10.14413,21.1241 24.52246,24.24498 13.57095,2.94565 33.98249,1.40655 42.94032,-3.22572 5.48595,-2.8369 11.00854,-9.36103 13.11102,-15.46962 1.65812,-4.81754 1.98866,-9.75723 2.01175,-31.77167 l 0,-26.0833 -6.27803,-0.34685 -6.27803,-0.31217 z m -370.92389,0.10405 0,6.62488 0,6.62489 14.70654,0.31216 14.70654,0.31217 0.31217,31.91042 0.27748,31.91041 6.65956,0 6.62488,0 0,-32.1879 0,-32.18789 14.42906,0 14.42906,0 0,-6.65957 0,-6.65957 -36.07265,0 -36.07264,0 z m 207.55644,0 0,38.91684 0,38.95152 27.47071,-0.38154 c 25.37794,-0.33524 27.87919,-0.52442 32.67349,-2.74013 7.32373,-3.38472 14.40839,-10.32104 18.20974,-17.82821 3.01387,-5.952 3.23017,-7.31917 3.22573,-18.62597 -0.006,-13.99243 -1.84969,-19.27155 -9.50375,-27.15855 -9.19226,-9.47198 -16.47466,-11.13396 -48.24716,-11.13396 l -23.82876,0 z m -238.63441,0.55497 c -29.48544,0 -33.06918,0.79909 -42.59347,9.50375 -7.57481,6.92286 -10.82656,14.15699 -11.51549,25.52834 -1.16831,19.2862 9.07077,35.0926 26.22203,40.37361 3.73946,1.1514 11.7073,1.60862 29.27434,1.66489 l 24.14092,0.0694 0,-6.59019 0,-6.5902 -24.69588,-0.34685 -24.69589,-0.34685 -5.23747,-3.08699 c -3.39971,-1.99843 -6.32603,-4.92478 -8.32446,-8.32445 -2.63685,-4.48568 -3.08698,-6.46903 -3.08698,-13.66599 0,-7.41486 0.42049,-9.04294 3.36447,-13.80472 2.37047,-3.83408 4.93679,-6.24244 8.84473,-8.25509 5.32765,-2.7438 6.28213,-2.83112 29.72525,-3.19104 l 24.21029,-0.38153 -0.31217,-6.27803 -0.34685,-6.27803 -24.97337,0 z m 251.95354,12.52137 19.2503,0.41622 c 19.12706,0.38514 19.26595,0.39489 24.69589,3.71132 11.09529,6.77662 14.78064,21.52052 8.49788,33.92216 -3.24864,6.41257 -7.85819,10.24141 -14.56779,12.10515 -2.20843,0.61343 -11.64037,1.14128 -20.94989,1.14461 l -16.92639,0 0,-25.63239 0,-25.66707 z"
       id="path3046"
       inkscape:connector-curvature="0" />
    <path
       style="fill:#050505"
       d="m 465.18341,972.51247 c -3.70017,0.1675 -7.42728,7.58651 -17.58542,30.97393 -6.64978,15.31 -12.4597,27.478 -12.9029,27.0198 -0.44321,-0.4582 -5.84447,-12.5699 -12.03578,-26.9158 -13.14376,-30.45525 -15.99455,-34.17889 -22.12918,-29.13555 -1.8256,1.50084 -4.61165,10.26837 -12.31326,38.56995 -5.48202,20.1452 -9.98823,37.0022 -9.98934,37.4601 -10e-4,0.4578 2.92421,0.8324 6.48614,0.8324 l 6.48613,0 7.11048,-26.6382 c 3.91516,-14.6511 7.35915,-26.61649 7.66543,-26.60361 0.30629,0.0128 5.29991,11.06671 11.09928,24.59181 5.79937,13.5251 11.47813,25.7749 12.59074,27.1932 2.41441,3.0779 6.65123,3.3382 9.3997,0.5897 1.0888,-1.0888 6.919,-13.3255 12.97227,-27.1932 6.05329,-13.8678 11.32981,-24.8419 11.72361,-24.38375 0.39381,0.45813 3.55594,11.57095 7.04111,24.69585 3.48516,13.1249 6.58876,24.7375 6.90236,25.8059 0.46015,1.5675 1.8658,1.9423 7.17984,1.9423 3.62162,0 6.55551,-0.3172 6.55551,-0.6937 0,-0.3764 -4.48072,-17.2334 -9.98935,-37.46 -7.59879,-27.90131 -10.59045,-37.23509 -12.34794,-38.70875 -1.47111,-1.23353 -2.68605,-1.99821 -3.91943,-1.94238 z m 284.2108,0.27748 c -0.61582,0.0347 -1.23006,0.2493 -1.97705,0.58965 -1.69493,0.77227 -10.4225,14.12931 -25.49365,39.0556 -12.59871,20.837 -22.92694,38.0865 -22.92694,38.3618 0,0.2754 3.41747,0.5203 7.56138,0.5203 l 7.5267,0 17.03045,-28.8928 c 9.36425,-15.8842 17.35207,-29.09229 17.75884,-29.34368 0.78466,-0.48495 16.71828,25.46698 16.71828,27.22788 0,0.5741 -5.15625,1.0406 -11.58487,1.0406 l -11.58487,0 -2.8095,4.7172 -2.80951,4.7172 17.96696,0.5549 18.00163,0.555 5.96586,9.7119 5.93118,9.7118 7.66543,0 c 4.21579,0 7.66544,-0.2978 7.66544,-0.659 0,-2.1878 -45.01082,-75.17017 -47.27597,-76.65436 -1.32658,-0.8692 -2.30341,-1.27182 -3.32979,-1.21399 z m -722.770844,0.13874 c -1.6822,-0.0677 -3.2919,0.41303 -4.3357,1.45678 -1.3632,1.36321 -5.469,14.51477 -11.897,38.11903 -5.3966,19.8167 -10.04400004,36.6623 -10.33620004,37.4254 -0.389,1.0161 1.26730004,1.3874 6.20870004,1.3874 l 6.7636,0 1.6301,-5.8271 c 1.7436,-6.1347 9.5249,-34.548 11.7584,-42.975 1.6116,-6.08064 0.5968,-7.73096 14.01277,23.1351 5.73987,13.2058 11.25721,24.6265 12.27857,25.3895 2.70534,2.0213 6.34445,1.6931 8.5672,-0.763 1.06741,-1.1795 6.69047,-13.0418 12.48673,-26.3608 5.79627,-13.319 10.92924,-24.60643 11.37676,-25.07744 0.44752,-0.471 3.97848,10.96414 7.87355,25.38964 3.89496,14.4254 7.681364,26.4342 8.393834,26.7076 0.71257,0.2734 3.74461,0.3607 6.76362,0.1734 l 5.51495,-0.3468 -9.19159,-33.8528 c -5.042074,-18.61906 -9.705264,-35.73579 -10.370884,-38.01504 -1.52826,-5.23246 -4.6052,-7.04259 -8.87942,-5.27216 -2.7039,1.11998 -4.65809,4.8225 -15.01871,28.65 -6.54951,15.0625 -12.26398,27.7953 -12.69485,28.2685 -0.43076,0.4732 -6.2268,-11.6795 -12.86817,-26.9851 -6.64125,-15.30566 -12.57332,-28.25617 -13.21508,-28.78879 -1.37498,-1.14115 -3.13898,-1.77059 -4.82118,-1.83832 z m 554.720894,0.4856 0,39.02091 0,39.0209 27.4707,-0.3469 27.47071,-0.3468 6.34739,-3.1217 c 19.66288,-9.6558 27.41935,-35.4999 16.64892,-55.49639 -3.56323,-6.61551 -8.8043,-11.3273 -16.82234,-15.08807 -6.02464,-2.82579 -6.75684,-2.89154 -33.64468,-3.26041 l -27.4707,-0.38154 z m -464.08843,0.10405 0.34685,27.50536 c 0.34352,27.1462 0.41489,27.6346 3.32978,33.8528 4.167,8.8893 12.3687,14.3582 25.32022,16.857 6.15233,1.1871 28.38595,-0.2098 34.19964,-2.1504 8.27673,-2.7629 15.10373,-9.0889 17.93227,-16.649 2.07512,-5.5462 2.25454,-8.5856 2.25454,-32.7775 l 0,-26.63826 -6.38208,0.31217 -6.38209,0.34685 -0.55496,26.63824 c -0.52988,25.4336 -0.65452,26.7799 -3.0523,30.1415 -3.88808,5.4509 -10.83123,7.5961 -24.69589,7.5961 -13.86477,0 -20.77312,-2.1452 -24.6612,-7.5961 -2.39777,-3.3616 -2.5571,-4.7079 -3.08698,-30.1415 l -0.55497,-26.63824 -7.00641,-0.34685 -7.00642,-0.31217 z m 250.98235,0 -6.93705,0.31217 -6.93704,0.34685 -0.27749,38.56994 -0.27748,38.57 7.21453,0 7.21453,0 0,-38.9168 0,-38.88216 z m 132.08137,0.0694 0,38.84746 0,38.8821 34.96272,0 34.96271,0 0,-6.6595 0,-6.6249 -28.02567,-0.3122 -28.02567,-0.2775 0,-24.9733 0,-24.97338 28.09504,-0.31217 28.09504,-0.27748 -0.34685,-6.38208 -0.34685,-6.3474 -34.68524,-0.31216 -34.68523,-0.27749 z m -286.36129,0.0347 0,38.84746 0,38.8475 32.74286,0 32.74286,0 0,-6.6595 0,-6.6596 -26.08329,0 -26.0833,0 0,-32.1879 0,-32.18796 -6.65957,0 -6.65956,0 z m 461.72983,0 0,38.84746 0,38.8475 6.65957,0 6.65956,0 0,-38.8474 0,-38.84756 -6.65956,0 -6.65957,0 z m -403.45864,0.55497 -0.31216,6.38208 -0.34686,6.38208 15.05339,0 15.01871,0 0,32.18783 0,32.1879 6.65957,0 6.65956,0 0,-32.1879 0,-32.18783 15.05339,0 15.05339,0 -0.34685,-6.38208 -0.34685,-6.38208 -36.07264,0 -36.07265,0 z m 322.9889,13.31913 18.86877,0 c 17.11457,0.0186 19.28151,0.24471 23.30847,2.39328 8.9235,4.76108 12.80313,11.67988 12.76417,22.82298 -0.0427,12.2219 -6.64241,21.3946 -17.27325,24.0715 -7.03587,1.7716 -37.00672,1.606 -37.70285,-0.2082 -0.29858,-0.7781 -0.40795,-12.1411 -0.24279,-25.2509 l 0.27748,-23.82866 z m -28.30315,18.24436 -21.36611,0.3122 -21.3661,0.3122 -0.34685,4.2662 c -0.1933,2.3535 -0.0839,4.9757 0.2428,5.8272 0.47937,1.2492 4.66824,1.5608 21.71295,1.5608 l 21.12331,0 0,-6.1393 0,-6.1393 z"
       id="path3048"
       inkscape:connector-curvature="0" />
  </g>
</svg>
